<svg id="Layer_1" data-name="Layer 1" xmlns="http://www.w3.org/2000/svg" viewBox="0 0 496.13 347.29"><defs><style>.cls-1{fill:#fff;fill-rule:evenodd;}</style></defs><title>logo-huygens-ing-inv</title><path class="cls-1" d="M62.15,57.73c.46-1.87,4.77-1.67,5.6-1.37-4.42,9.09-9.16,17.85-18.48,22-1.33-.42,3.13-5.62,3.31-7.79.24-2.8-4-5.58-4.84-7.17C46.56,61,67.92,62.24,62.15,57.73Z" transform="translate(-0.74 0.29)"/><path class="cls-1" d="M225.12,327.32c1.93,4.94,14.77-.58,14.09-8.26C236.34,313.93,223.52,318.72,225.12,327.32Z" transform="translate(-0.74 0.29)"/><path class="cls-1" d="M50.37,102.24a14.61,14.61,0,0,0-1.57,6.45c1.25,5.56,9.54,9,18,6.89-1.3-6.53-4.11-10.86.25-16.53-7,1.74-9.51,3.29-14,2l-3.38-.49c4.23-5,7.32-9.68,11.4-13.06.83-.68,5.59,3.66,6.6,3.51.39-.06,3.67-2.72,1.73-3.41-3.33-1.2-5.75-4.78-6.87-9.07-.78-3,5.05-7.77,6.26-8.77,6.29-.69,1.94,8,8.37,7.2C79,68.57,81,59.33,83.37,51.48c-3-4.73-10.42,4.07-14.16.75C67,50.68,77.51,41.75,83,42.51c1.49.21-2.83,6.58,3.43,3.79a17,17,0,0,1,2-4c-6.82-2,18.48-9.79,19.19-8.56,1.79,3.45-4.65,5.58-5.45,9.76,3.58-2.52,19.79-13.75,20.35-7.81,0,4.94-14.46,5.57-22.37,11.8a24.52,24.52,0,0,0-3.84,5.78c13.13-4.59,27.88-11.76,41.09-8.37,11.11-8.57,35.44-19.93,32.78-23C160.51,24,153,31.35,152,31c8.28-9.57,35-18.54,31.91-6.78,10.76-2.48,34-6.77,36.35-7.37,2.84-.74,18.41-12,30.8-16.34,3.63-1.2,7.67-1,8.74.8,1.86,5.78-10.26,14-18.42,17.91,7.46.89,13,4.78,12.61,11.19-1.78,8.14-12.27,13.84-24.13,14.55-.12,2.31,1.52,4.83,2.8,5.12,2,.43,8.78-2.14,11.53-2.06,1,0,.39,2.19-.1,2.47-2.49,1.39-7.64.47-9,1.65-1.85,1.62,3.13,4.67,4.24,7.77,9.09-6.57,12.52-10.56,19-16.66,2.28-2.15,1.82-10.44.81-16.42,1.44.11-4.55-2.94-3.23-2.95,14,0,26.66-3.87,34.41-10.16,3.32,7.55,12.47,7.35,19.42,8.26-7,6.23-23.79,11.06-27.38,20.67-.34.9,3,2.84,4.25,2.71,5.25-2.79,6.86-7.57,9.83-8.4,1.78-.5,2.56,1.12,6.33,2.22,15.69-31.65,62.34-11.48,80.78,3.79,1.32-3,2.52-5.93,2.22-8-.46-3.18-6-5.61-8.44-6.85-4-2-2.46,3.06-6.23-2-1.89-5.46,11.13,2.93,15.87,5.1.53-2.91,1.75-6.36,4.64-6.49s8.65,3.46,9.3,5.9c-.13.83-2.82-1.6-4.85-1-1.36.41-3,4.41-2.79,6.14,3.19,3.63,5.27,8.34,9.86,10.6.81.4,1.42-1.19,2.62-.6,4.2,2.05,12.61,8.43,17.37,10.56,1.16.52,2.45-2.72,3.83-3.19.85-3.12-9.19-4.82-4.51-7.73,6.86.11,14.17,6.42,12.6,8.93-5.51,4.32-14.94,7.77-23.42,5.18,5.45,4.34,7.91,9.9,10.29,9.17,5.86-1.79,14.14-4.25,18.37.2,1.65,1.73-.6,4-4.44,5.18-1,.45-3.16-1.23-5.05-2-3.12-1.25-6.08-1.84-6.06.2.81,5.94-3.06,5-2.86,10.32,3.06,2.83,5.48-1.55,7.51-2s6.65.41,7.47,4c.84,2.85-9.29.79-4,6.77a30.26,30.26,0,0,1,20.4.2c4.44-3.78-8.35-8.36-5.86-11,.41-1.39,2.46-3.95,4.24-2.79,8.13,5.27,7.19,20.31.39,28.42-1.69,2-1.19,6.45.09,9.38,1.54,1.86,8-2.13,10.83.46s-12.4,20.45-11.71,21.12,1.33.14,1.85.17c1.33.09,16.16-21,17.13-21.3,2-.6,4.95-.27,4.64.4A180.25,180.25,0,0,0,458.7,139c2,.75,7.24-1.61,7,1.38a10.88,10.88,0,0,1-5,8.65c-1.53.83-3-.65-3.8,1.09,4.47,2.84,4,11.34,0,16.54-1.06,1.35,2.42,2,4.85,1.79,10.49-20.72,48.25-2.41,30.49,7-1.64.87-6.26,2.59-8.94.76-3.65-1.81-4.12-4.19-2.58-7.94,3-3.79,11.11,3.59,9.09-2-.57-1.61-9.69-.6-12.12,1.2-7.61,5.64-12.51,17.83-17,26.64,2.81-.56,15.19-1.93,15.19-.13-2.41,5.51-7,11.16-12.92,13.15-1.57,0,1.42-7.18-3.72-8.88-9.87,9.22-20.88,17.3-29.74,27.55,22.15-3.92,28.81-14.48,30.9-12.4,3.17,1.5-4.27,5-4.34,9.64,26.31,24.27-21,53.77-41.43,62,3.24,2.88.91,13.19-3.37,13.18-1-1.79-1.45-4.83-2.27-5.89-5.76-7.46-27-9.61-28.23-4.48-2.2,5.84-4,20.53,0,22,6,.6,13-4.4,16.37-7.63.61-.59,2.82-3.39,4.73-3.39-6,10.28-10.65,20.17-29,18.13-8.28-2.56-6.06-18.92-7.16-29.16h-8.38c-.75,6.71,1.22,16.13-1.71,20.66,3.7.78,6.74-4.66,8.56-1.67-5.12,5.6-15.34,15.15-17.12,14.07-10.84-5.3-20.2-12-23.35-24.8-2.22,2.94-16.48,11.13-13.45,11.72,1.82.79,11.91-1.2,14.74.2-1.64,6.28-10.18,15-10.9,13-1.09-9.8-8.48-15.35-18.44-16.61-.67,9.78-3.37,13.22,1.08,20.66-11.34,1.31-20,5.27-26.5,11.46-1.63,1.55-3.19,5.42-4.46,5.07C255,335.28,244,347.4,240.56,347c5-12.56,19.26-26.49,36.56-17.91,2.22-8.15-4.58-14.37-1.4-19.14-14.74,5.78-34.12,7.68-47.17,1.23-3.6,5.72-7.8,9.62-14.82,11.92-.09,3.24,1.61,6.78.55,8.74-8.63,3-10.46,2-15.13,4.57-7,3.82-11.76,11.42-13.09,9.6,2.45-13.87,16.56-13.73,14.53-32.08-10.33,3.71-22.61-1.22-29.34,1.38q-.06,4.13-.12,8.27c5,.32,9.33,1.36,12.71.32,3.59-1.12,6.87-4.19,8.48-3-5.19,19-37.46,11.41-53.48,15.07-.64-.53-1.44-.95-.95-1.43,5.64-5.51,13.63-12.12,9.7-23.37-5.38-1.2-5,3.37-8.44,4.13-2.85-4.46-6.59-8.07-12.42-9.64-2.62,14.71-24.79,20.11-41.64,18.23-1.73-.19-1.62-1.2-1.88-1.7,11.34-.75,20.36-3.85,26.67-9.64.45-6.79-4-12.77-6.34-15.52-11.82,10-42.14,16.31-40.72-10.65,4.09-3.34,20.6-8.47,23.73,0-.39,3.8-5.24,3.14-7.06,5.51,5.22,3.76,15.19,2.63,17.51-3.07-3.88-8.76-22-16.54-26.54-16.88-15.33-1.14-32.46,4.92-39.29,12.69-.48.55-1.45-.22-1.82.37,7.07-10.53,17.54-14.12,29.59-17.9-11.61-5.38-16.47-13-17.87-13.35-9.91-2.13-15.75-15.14-5.86-27.11-16.36-7.17-21.71-30-15.38-49.07-3.39-.78-7.16-1.18-6.89-5.51,2.62-15.79,15.61-24.33,20.66-30.51-10.14-2-22.95-5.36-29.37.31-.76.66,1,3.83.41,4.72s-2.75.75-3.88.69c-.68-16.68,32-12.89,41.12-11.29,1,.18,4.24-4.19,8-6.62-4.77-6-8.74-8.88-8.12-16.53.16-2,3.6-6.56,6.78-10.83ZM226.65,16.41c3.23.2,9.18,1,10.4.6,7.61-2.5,16.22-8.56,16.46-12.76C253.2,1.1,235.62,9.12,226.65,16.41Zm-25.9,13.78c5.8-3.42,9.3-6,15-9.8-5.59.26-11.31,2-14.54,4.38C200.54,25.26,200.6,29.16,200.75,30.19Zm8.63-.83c3.33-.6,11.71-4,21.21-9-3.23-.39-9.5-.6-10.5,0C215.22,23.27,208.92,28.83,209.38,29.36Zm-8.73,7.72c-.05,5.64-4.71,16,1.08,20.66,9.16-3.86,13.41-4.66,18.56-5.41-1.42-2.39-2-6.06-3.74-7.82-1.07-1.42-4.1,2.47-7.07,2.79s-8.28-1.79-6.12-4.71c6.75-5.56,20.47-1.06,23.49-1.66,5.11-1,9.31-8.11,9-18.13C227.15,26,214.13,34.75,200.65,37.08Zm77.49,1.05c1.41-.8.9-7.31,2.91-6.92,4,.74,9.2,1.54,9-.06C282,29.36,279.55,26,275.92,23,273.3,25.69,276.35,35.63,278.14,38.13Zm72.77,33c4.56-1.59,8.52,4.2,11.17,0-2.76-4.12-1.21-8.76.88-12.49-5.6-1-4.25,6.26-9.19,6-3.73-5.77-12.21-7-11-9.65,3.42-1.71,6.56-3.69,8.48-6.88.42-1.6,7.28,6.17,12.54,8,3.82,1.31,7.27-2.59,12.54-5.21-7.68-23.11-56.29-37.24-71-11,3,2.07,11.14,3.44,10.41,5.27-.69,1.36-4.95.68-6.06,2.19s-.4,5.58-.39,7.68c8.68-.31,10.7-5.09,15.46-6.88,1.5.2,9.37,6.17,15.21,9.64,1.64,1.72-4.22,4.31-4.41,5.9s.4,7.37,1.41,7.57c1.75.34,4.44-4.39,7.07-6.18,1.26-.86,4.44,1,7.87,1.4C352.66,66.82,348.82,70.81,350.91,71.14ZM150.72,45.5c7.48-2,19.61-1.81,25.85-2,1.22,0,9.39-4,11.5-5.06q.09-6.2.19-12.4c-1.69.32-5.92.76-7.75,2.71C174.71,34.93,162.63,39.72,150.72,45.5ZM388.4,48.09c3.43,2.19,8.26,5.25,11.64,1.18-4.3-2.15-5-5.57-8.62-9.35C391.23,41.83,388.49,45.3,388.4,48.09ZM145.07,51.48c.6.85,3,3.83,2.83,5.78,4.85-1.4,14-4.78,16.66-6.78C156.68,49.49,149.71,48.29,145.07,51.48ZM95.19,57.05a93.35,93.35,0,0,0-3.64,22.12c11.82-2.34,28.47-.79,38.39-4.94,2.38-1,3.33-6.3,4-9.21-3.69,1.23-10.61,4.92-13.31,1-1.13-5.75,6.14-10.73,9-14.91C115.07,49.49,106.29,52.68,95.19,57.05Zm53.33,11.7c7.3-5.28,15.69-9.46,22.57-15.15-.88-.21-2.12-2.92-3.34-2.39-5.11,2.26-13.53,7.31-18.64,9.83C148.3,61.44,148.2,67.22,148.52,68.75Zm121.57-8.26a11.86,11.86,0,0,0,6.85,2.95c1.61.27,12.58-7.66,13.94-12.16-2.23-1.2-3.34-3.63-4.85-3-4.06,1.74-5.85,8.2-8.29,11C276.09,61.12,274.3,54.67,270.08,60.49Zm118.53,6.89a36.53,36.53,0,0,0,4.36-11A6.19,6.19,0,0,0,387.41,55C385.53,57.2,384.21,67.12,388.62,67.38ZM373.28,66c.37,2.82,7.44,7.2,9.66,6.88.21-1.68-1.42-10.65-3.93-16.53A11.5,11.5,0,0,0,373.28,66ZM203.63,60.85c0,2.3.78,4.23.74,6.53,8.5,1.68,19.52,1.51,26.52-1.95-3.43-4.19-7.17-9.32-8.68-9.57C217.1,55,210,58.61,203.63,60.85ZM173.52,77c3.63-4.12,9.06-16,2.24-18.76C170.7,62.71,170.48,69.74,173.52,77Zm142.37,0c2.51-2.6,1.16-9.1,1.61-13.77-2.89-.81-4.47-2.9-6.92-4.13-.53,1.93-.92,9.53.28,13.09A10.34,10.34,0,0,0,315.88,77Zm87.86,3.76c3,1.79,9.7-3,10.5-5.38.2-7.18-5-13.41-12.52-15.15C395.26,68.82,398.4,75.73,403.74,80.77ZM159.81,65.83c-1.21-.6-11.25,5.23-11.31,6.58C148.7,76.79,159.75,67.17,159.81,65.83ZM98,88.54a9.24,9.24,0,0,0,6.66,4c3,.2,11.66-4.91,13.13-7.37C117.4,83.76,98.21,86.75,98,88.54Zm341.28,9.36a17.1,17.1,0,0,1,7.87,6.57c1.9-2.09,4.12-4.56,4.64-6.37C451.47,95.37,440.57,92.64,439.29,97.91ZM45.92,137.36c3.79.55,8.88,2.59,12.92,3.39,1.47-1.08,2.53-4,4.94-7.27-4.54-1.5-9.18-2.89-10-3.17C50.7,129.24,48.54,133.18,45.92,137.36Zm-25,37.45c2.19-4.36,4.06-9.48,8.45-13.93a1.87,1.87,0,0,1,2.63-.4c-1.62,4.38-7.27,11.76-5,14,8.08-1.2,18.27-8.69,22-14.13,1.43-2.08,0-4.31.61-6.74.54-2.17,3.21-4.51,3.2-7-4.06-1.48-12.61-4.14-13.93-3.59C32.58,145.54,4.11,175.83,20.9,174.81Zm36.52-9.55c-9.09,5.58-18.38,13.55-31.7,13.16-1.41,10.76-.81,21.72,1.82,28.1,11.71-5.18,12.32-13.35,24.43-10.76C58.55,191.16,58.63,179.82,57.42,165.26ZM437,187.21c.07,2.4-.76,5.16-.57,7.55,6.86-.4,15.14-5,18.58-14.94C450,182.81,443.29,187.43,437,187.21ZM58,208.91c3.44.18,7.82,0,9.49-1.59.12-4.19-.72-7.85-5-10C62.56,203.44,58.1,204.31,58,208.91ZM30,211.3c1.46,4.92,5,7.77,9.69,10.16,3.63-6,11.37-7.16,7.63-13.59C39.65,205.12,36.22,208.11,30,211.3ZM42,223.22c8.22,3.33,19.38,11.57,30,8.06-3.63-3.27-7.64-6.15-8.19-12.4C54.8,217.37,46.44,217.12,42,223.22Zm394.21,21c5.75-.31,14.81.28,14.54-1-.8-4.18-2.62-5.58-4.64-11-1.26-3.35.81-8.37-5.56-5.07C437.36,230.91,436.56,237.49,436.26,244.18ZM39.45,249.57c-1.2-8.67,1.82-13.35,4.68-18.28-2.66-1.06-4.63-2.74-5.89-3.25C31.78,235,32.25,246.44,39.45,249.57Zm387.11,23.91c1.25-8.89,5.8-33.07,5.45-41.65,0-1.1-2.78,1.12-3.27.24-1.57,14.71-5.21,32-5.61,42C423.08,275.2,425.18,273.36,426.56,273.48Zm-368.78-22c3.33.15,9.27-3.29,11.24-5-2.76-3.2-3.72-6.44-10.79-10.62,1.56,7,.44,9.22-2.54,11-.49.28-2.22-.26-5.06-1-2.66-.68-2.79-6-2.49-8s3.13-2.49,2.73-3-2.59-.77-2.59-.77c-2.5.7-3.22,6.36-2.92,8.6C46.84,247.34,49.11,251.07,57.78,251.46Zm25.09,8.28a105.87,105.87,0,0,1-11.61-9.92c-1.66.67-6,3.29-8.78,3.88C68.78,255.59,74.29,258.93,82.87,259.73ZM435,253.35c-.8,5.18-2,11.74-2,16.33a28.5,28.5,0,0,0,15.56-17.74C443.73,252.15,436.05,251.56,435,253.35ZM124.22,287.76c.24,5.65.51,11.26,2.56,15.15a17.62,17.62,0,0,0,9.92-9.64c1.69,2,5.6,3,9.17,3.12,1.26-1.75,1.84-4.56,1-6-1.46-2.49-6.84-4.42-8.88-6.18.2,1.59-1.26,4.66-2.43,5.18C133.35,290.41,127.49,288.82,124.22,287.76Zm177.35,3.65c.4,2.79,2.42,5.17,3.83,7.17,4-1,8.08-9,5.84-9.44C307.77,288.94,302.58,289.81,301.56,291.41Zm-70,6c3.91,8.43,17.49,16.23,29.55,12.22-3.93-4.33-13.65-6.25-18.9-7.85.74-3.62,6.87-5.78,6.26-8.57-3.8-1-9.11-2.48-10.91-2.39C236.28,290.88,232.3,295.59,231.55,297.4Zm107.54-4.13c1.32,7.31,6.36,11,12.35,13.77,1.62-4.67,1.46-11,2.23-15.84C348.92,291.58,341.77,290.82,339.09,293.27ZM214.48,318.06c4.78-3.6,4.7-12.07,4.5-20.66h-8.38C212.85,303.4,215.15,313.37,214.48,318.06Zm-58.11,7.62a32.33,32.33,0,0,1,10.57-2.11c.92-9.93-.39-16.61-1.28-24.79h-5.32C159.81,307.1,159,319.44,156.37,325.68Zm13.63-20c7.37-.71,12-.35,22.31-.71C192.1,296.74,168.91,296.09,170,305.67Zm95.41,3.08c2.28-.52,7.14-1.52,9-3.13s.61-6.24.42-9.23C270.87,299.38,264.2,308.54,265.41,308.75ZM133,55.86s-6.26,4.78-4.85,5.78,5-.6,5-.6A6,6,0,0,0,133,55.86Zm37.86,253.28s14.95-2,21.81-1.6c0,0,.81,3.39,0,3.39s-13.53-.6-21.4-.2C171.32,310.74,170.91,311.14,170.91,309.15Z" transform="translate(-0.74 0.29)"/><path d="M129.92,177.68l-11-4.3v-33.2a9,9,0,0,0-2.53-6.29,7.36,7.36,0,0,0-5.74-2.62c-1.51,0-6.34.23-14.34.69v45.73h-11V107.51l11-4.3v17.84c11.31-.61,13.81-.68,14.67-.68a17.71,17.71,0,0,1,13.6,6.1,19.9,19.9,0,0,1,5.37,13.7Z" transform="translate(-0.74 0.29)"/><path d="M155,178.76H155a17.7,17.7,0,0,1-13.6-6.1A19.9,19.9,0,0,1,136,159V127.19l11-5.74v37.47a9.07,9.07,0,0,0,2.53,6.31,7.3,7.3,0,0,0,5.74,2.64H156l15.86-.9V121.45h11v56.09Z" transform="translate(-0.74 0.29)"/><path d="M254.14,179.29v2.88a6.88,6.88,0,0,0,2.41,5.59,9.69,9.69,0,0,0,6.62,2.25h5.58a8.81,8.81,0,0,0,6.45-2.6,8.49,8.49,0,0,0,2.64-6.34v-4.33a20.11,20.11,0,0,1-9.09,2h-6.67a19.64,19.64,0,0,1-14.2-5.8A19,19,0,0,1,242,159V140.18a19.61,19.61,0,0,1,5.52-13.8,18.21,18.21,0,0,1,13.78-6h1l26.64,1.22v59.49a19,19,0,0,1-5.91,14,19.62,19.62,0,0,1-14.21,5.8h-5.58A20.48,20.48,0,0,1,249,195.68a17.28,17.28,0,0,1-5.88-11.9Zm7.25-48a7.67,7.67,0,0,0-5.85,2.61,8.83,8.83,0,0,0-2.55,6.29v18.76a8.55,8.55,0,0,0,2.63,6.35,8.74,8.74,0,0,0,6.46,2.6h6.67a8.81,8.81,0,0,0,6.45-2.6,8.4,8.4,0,0,0,2.64-6.29V132.16Z" transform="translate(-0.74 0.29)"/><path d="M314.32,178.76h-.08a18.23,18.23,0,0,1-13.79-6A19.63,19.63,0,0,1,294.94,159V140.18a19,19,0,0,1,5.92-14,19.63,19.63,0,0,1,14.2-5.8h6.68a19.69,19.69,0,0,1,14.22,5.8,19,19,0,0,1,5.9,14v16.51H306v2.26a8.87,8.87,0,0,0,2.55,6.31,7.64,7.64,0,0,0,5.93,2.63H315l24.64-1.31-3.71,11.12Zm-8.35-33h24.85v-5.62a8.44,8.44,0,0,0-2.62-6.33,8.77,8.77,0,0,0-6.47-2.59h-6.68a8.79,8.79,0,0,0-6.44,2.6,8.43,8.43,0,0,0-2.64,6.31Z" transform="translate(-0.74 0.29)"/><path d="M394.84,173.37l-11,4.3v-37.5a9,9,0,0,0-2.53-6.29,7.34,7.34,0,0,0-5.74-2.62h-.72l-15.86.9v45.52h-11V121.6l27.8-1.22h0a17.78,17.78,0,0,1,13.73,6.09,19.91,19.91,0,0,1,5.37,13.7Z" transform="translate(-0.74 0.29)"/><path d="M422.11,178.76c-.26,0-.81,0-19.94-1.1l-3.08-.18,3.21-10.75,19.9,1.14a6,6,0,0,0,4.36-1.66,5.67,5.67,0,0,0,1.69-4.4c0-3.74-1.41-5.76-4.7-6.74l-14-3c-4.24-1.73-9.29-6-9.29-16.37a14.6,14.6,0,0,1,4.15-10.61c3.11-3.17,7.38-4.76,12.69-4.76.22,0,.54,0,16.9,1.09L437,132.5,417,131.21c-5.27,0-5.71,2.14-5.71,4.49,0,2,.3,4.64,1.74,5.84.66.59,2.26,1.51,6.5,1.89,5.77.48,10.1,1.79,13.24,4,4.34,3.09,6.53,7.93,6.53,14.39a16,16,0,0,1-5.14,12.26A17.19,17.19,0,0,1,422.11,178.76Z" transform="translate(-0.74 0.29)"/><polygon points="95.53 246.88 84.5 246.88 84.5 194.96 95.53 190.66 95.53 246.88"/><path d="M149,243.72l-11,2.87V209.09a9,9,0,0,0-2.53-6.29,7.35,7.35,0,0,0-5.74-2.63h-.73l-15.86.9v45.53H102V190.5l27.8-1.22h0a17.76,17.76,0,0,1,13.73,6.1,19.91,19.91,0,0,1,5.37,13.7Z" transform="translate(-0.74 0.29)"/><path d="M235.89,121.45v66.82L229,191v12l-11,4.31V194l6.91-2.7V178l-16.76.72h0a17.74,17.74,0,0,1-13.73-6.11A19.91,19.91,0,0,1,189,158.95v-37.5l11,4.31v33.16a9.13,9.13,0,0,0,2.53,6.31,7.3,7.3,0,0,0,5.73,2.63H209l15.83-.72v-45.7Z" transform="translate(-0.74 0.29)"/><path d="M166.84,248.21v2.87a6.88,6.88,0,0,0,2.41,5.59,9.69,9.69,0,0,0,6.62,2.25h5.58a8.79,8.79,0,0,0,6.45-2.6,8.46,8.46,0,0,0,2.64-6.33v-4.33a20.12,20.12,0,0,1-9.09,2h-6.67a19.64,19.64,0,0,1-14.21-5.8,19,19,0,0,1-5.91-14V209.09a19.62,19.62,0,0,1,5.52-13.8,18.24,18.24,0,0,1,13.78-6h1l26.64,1.23V250a19,19,0,0,1-5.91,14,19.64,19.64,0,0,1-14.21,5.78h-5.58a20.47,20.47,0,0,1-14.13-5.2,17.29,17.29,0,0,1-5.88-11.9Zm7.25-48a7.69,7.69,0,0,0-5.85,2.6,8.83,8.83,0,0,0-2.55,6.3v18.76a8.56,8.56,0,0,0,2.64,6.35,8.72,8.72,0,0,0,6.45,2.6h6.67a8.78,8.78,0,0,0,6.45-2.6,8.4,8.4,0,0,0,2.64-6.29V201.08Z" transform="translate(-0.74 0.29)"/></svg>