<svg xmlns="http://www.w3.org/2000/svg" width="406" height="349" viewBox="0 0 406 349">
  <metadata><?xpacket begin="﻿" id="W5M0MpCehiHzreSzNTczkc9d"?>
<x:xmpmeta xmlns:x="adobe:ns:meta/" x:xmptk="Adobe XMP Core 5.6-c138 79.159824, 2016/09/14-01:09:01        ">
   <rdf:RDF xmlns:rdf="http://www.w3.org/1999/02/22-rdf-syntax-ns#">
      <rdf:Description rdf:about=""/>
   </rdf:RDF>
</x:xmpmeta>
                                                                                                    
                                                                                                    
                                                                                                    
                                                                                                    
                                                                                                    
                                                                                                    
                                                                                                    
                                                                                                    
                                                                                                    
                                                                                                    
                                                                                                    
                                                                                                    
                                                                                                    
                                                                                                    
                                                                                                    
                                                                                                    
                                                                                                    
                                                                                                    
                                                                                                    
                                                                                                    
                           
<?xpacket end="w"?></metadata>
<defs>
    <style>
      .cls-1 {
        fill: #fff;
        fill-rule: evenodd;
      }
    </style>
  </defs>
  <path id="Timbuctoo" class="cls-1" d="M403.993,103.251C370.212,46,274.785,5.616,185.734,6.995a266.739,266.739,0,0,0-80.64,13.554S82.4,82.438,83.606,158.157a295.152,295.152,0,0,0,2.773,34.781l232.4-65.611c-5.546-20.17-16.5-39.008-21.581-56.054,18.577,6.892,46.628,23.2,62.386,44.521ZM232.639,118.919c-9.519-7.03-23.244-23.8-19.362-38.778,3.928-15.116,24.4-23.8,36.322-25.592A136.752,136.752,0,0,0,232.639,118.919ZM5,249.129c33.6,57.065,128.654,97.314,217.289,95.89a265.723,265.723,0,0,0,80.27-13.463s22.552-61.613,21.35-137.056a283.2,283.2,0,0,0-2.773-34.643L89.845,225.192c5.5,20.078,16.405,38.87,21.488,55.824C92.848,274.17,64.89,257.9,49.224,236.678Zm170.569-15.575c9.473,6.984,23.106,23.708,19.27,38.64-3.882,15.071-24.261,23.708-36.138,25.5a130.622,130.622,0,0,0,12.524-31.656A130.586,130.586,0,0,0,175.568,233.554Z"/>
</svg>
